{
	"asset":{
		"copyright":"Monstrous Software",
		"generator":"Khronos glTF Blender I/O v3.5.30",
		"version":"2.0"
	},
	"extensionsUsed":[
		"KHR_materials_specular",
		"KHR_materials_ior"
	],
	"scene":0,
	"scenes":[
		{
			"name":"Scene",
			"nodes":[
				0,
				1
			]
		}
	],
	"nodes":[
		{
			"mesh":0,
			"name":"backdrop",
			"rotation":[
				0,
				0.014159340411424637,
				0,
				0.9998997449874878
			],
			"scale":[
				28.704694747924805,
				17.166275024414062,
				23.899995803833008
			],
			"translation":[
				0,
				-0.6918765306472778,
				0
			]
		},
		{
			"mesh":1,
			"name":"logo-extruded-beveled",
			"translation":[
				0,
				0.07083567976951599,
				0
			]
		}
	],
	"materials":[
		{
			"doubleSided":true,
			"extensions":{
				"KHR_materials_specular":{
					"specularColorFactor":[
						2.371357614441398,
						2.371357614441398,
						2.371357614441398
					]
				},
				"KHR_materials_ior":{
					"ior":1.4500000476837158
				}
			},
			"name":"background",
			"pbrMetallicRoughness":{
				"baseColorFactor":[
					0.1511242538690567,
					0.416980504989624,
					0.8000000715255737,
					1
				],
				"roughnessFactor":0.24611398577690125
			}
		},
		{
			"doubleSided":true,
			"name":"RedCapitals",
			"pbrMetallicRoughness":{
				"baseColorFactor":[
					0.7991030812263489,
					0.06847795844078064,
					0.05951126664876938,
					1
				],
				"metallicFactor":0.8393782377243042,
				"roughnessFactor":0.5
			}
		},
		{
			"doubleSided":true,
			"name":"blackLowerCase",
			"pbrMetallicRoughness":{
				"baseColorFactor":[
					0,
					0,
					0,
					1
				],
				"metallicFactor":0.6735751032829285,
				"roughnessFactor":0.5
			}
		}
	],
	"meshes":[
		{
			"name":"Plane.019",
			"primitives":[
				{
					"attributes":{
						"POSITION":0,
						"TEXCOORD_0":1,
						"NORMAL":2
					},
					"indices":3,
					"material":0
				}
			]
		},
		{
			"name":"Plane.018",
			"primitives":[
				{
					"attributes":{
						"POSITION":4,
						"TEXCOORD_0":5,
						"NORMAL":6
					},
					"indices":7,
					"material":1
				},
				{
					"attributes":{
						"POSITION":8,
						"TEXCOORD_0":9,
						"NORMAL":10
					},
					"indices":11,
					"material":2
				}
			]
		}
	],
	"accessors":[
		{
			"bufferView":0,
			"componentType":5126,
			"count":84,
			"max":[
				1,
				0.6161537170410156,
				1
			],
			"min":[
				-1,
				0,
				-1
			],
			"type":"VEC3"
		},
		{
			"bufferView":1,
			"componentType":5126,
			"count":84,
			"type":"VEC2"
		},
		{
			"bufferView":2,
			"componentType":5126,
			"count":84,
			"type":"VEC3"
		},
		{
			"bufferView":3,
			"componentType":5123,
			"count":246,
			"type":"SCALAR"
		},
		{
			"bufferView":4,
			"componentType":5126,
			"count":1312,
			"max":[
				2.483664035797119,
				0.4192250669002533,
				0.87326979637146
			],
			"min":[
				-0.9985048770904541,
				-0.4175199270248413,
				-0.14723938703536987
			],
			"type":"VEC3"
		},
		{
			"bufferView":5,
			"componentType":5126,
			"count":1312,
			"type":"VEC2"
		},
		{
			"bufferView":6,
			"componentType":5126,
			"count":1312,
			"type":"VEC3"
		},
		{
			"bufferView":7,
			"componentType":5123,
			"count":5400,
			"type":"SCALAR"
		},
		{
			"bufferView":8,
			"componentType":5126,
			"count":1166,
			"max":[
				-1.0952026844024658,
				0.4177508056163788,
				0.87326979637146
			],
			"min":[
				-2.4968066215515137,
				-0.4168996512889862,
				-0.1472388654947281
			],
			"type":"VEC3"
		},
		{
			"bufferView":9,
			"componentType":5126,
			"count":1166,
			"type":"VEC2"
		},
		{
			"bufferView":10,
			"componentType":5126,
			"count":1166,
			"type":"VEC3"
		},
		{
			"bufferView":11,
			"componentType":5123,
			"count":1872,
			"type":"SCALAR"
		}
	],
	"bufferViews":[
		{
			"buffer":0,
			"byteLength":1008,
			"byteOffset":0,
			"target":34962
		},
		{
			"buffer":0,
			"byteLength":672,
			"byteOffset":1008,
			"target":34962
		},
		{
			"buffer":0,
			"byteLength":1008,
			"byteOffset":1680,
			"target":34962
		},
		{
			"buffer":0,
			"byteLength":492,
			"byteOffset":2688,
			"target":34963
		},
		{
			"buffer":0,
			"byteLength":15744,
			"byteOffset":3180,
			"target":34962
		},
		{
			"buffer":0,
			"byteLength":10496,
			"byteOffset":18924,
			"target":34962
		},
		{
			"buffer":0,
			"byteLength":15744,
			"byteOffset":29420,
			"target":34962
		},
		{
			"buffer":0,
			"byteLength":10800,
			"byteOffset":45164,
			"target":34963
		},
		{
			"buffer":0,
			"byteLength":13992,
			"byteOffset":55964,
			"target":34962
		},
		{
			"buffer":0,
			"byteLength":9328,
			"byteOffset":69956,
			"target":34962
		},
		{
			"buffer":0,
			"byteLength":13992,
			"byteOffset":79284,
			"target":34962
		},
		{
			"buffer":0,
			"byteLength":3744,
			"byteOffset":93276,
			"target":34963
		}
	],
	"buffers":[
		{
			"byteLength":97020,
			"uri":"libGDX-logo.bin"
		}
	]
}
